<svg width="43" height="44" viewBox="0 0 43 44" fill="none" xmlns="http://www.w3.org/2000/svg">
<path d="M19.822 3.03847C20.5892 1.69242 22.5297 1.69243 23.297 3.03849L38.2582 29.2841C39.0183 30.6174 38.0554 32.2745 36.5207 32.2745L6.59873 32.2742C5.06402 32.2742 4.10116 30.6171 4.86119 29.2838L19.822 3.03847Z" fill="#FFB127"/>
<path d="M20.696 9.47851C21.0819 8.81725 22.0374 8.81726 22.4233 9.47852L32.0745 26.0152C32.4636 26.6819 31.9827 27.5193 31.2108 27.5193L11.9088 27.5191C11.1369 27.5191 10.6561 26.6817 11.0451 26.015L20.696 9.47851Z" fill="#F8F8F8"/>
<ellipse cx="1.57858" cy="1.50158" rx="1.57858" ry="1.50158" transform="matrix(1 8.39157e-06 8.48247e-06 1 19.981 22.0137)" fill="#3F3D3A"/>
<rect width="3.15717" height="8.00843" rx="1.5" transform="matrix(1 8.39154e-06 8.48251e-06 1 19.9809 13.0039)" fill="#1C1B1B"/>
</svg>
