<svg width="52" height="39" viewBox="0 0 52 39" fill="none" xmlns="http://www.w3.org/2000/svg">
<path d="M24.2938 2.78986C25.0738 1.51456 26.9262 1.51458 27.7062 2.78989L47.5216 35.1882C48.3367 36.5209 47.3776 38.2317 45.8154 38.2317L6.18522 38.2314C4.62303 38.2314 3.66394 36.5205 4.47901 35.1879L24.2938 2.78986Z" fill="#FFB127"/>
<path d="M25.1526 10.8376C25.5444 10.2118 26.4559 10.2119 26.8477 10.8376L39.5169 31.07C39.9339 31.7361 39.4551 32.6008 38.6693 32.6007L13.3314 32.6005C12.5455 32.6005 12.0668 31.7358 12.4838 31.0698L25.1526 10.8376Z" fill="#F8F8F8"/>
<ellipse cx="2.00572" cy="1.7782" rx="2.00572" ry="1.7782" transform="matrix(1 8.39157e-06 8.48247e-06 1 23.9943 26.0806)" fill="#3F3D3A"/>
<rect width="4.01144" height="9.48374" rx="1.5" transform="matrix(1 8.39154e-06 8.48251e-06 1 23.9942 15.4111)" fill="#1C1B1B"/>
</svg>
