<svg width="21" height="21" viewBox="0 0 21 21" fill="none" xmlns="http://www.w3.org/2000/svg">
<path d="M10.0159 0.00781839C15.5387 0.0121364 20.0124 4.4928 20.008 10.0156C20.0037 15.5385 15.5231 20.0121 10.0002 20.0078C4.47739 20.0035 0.00373278 15.5228 0.00805075 10C0.0123687 4.47716 4.49303 0.00350042 10.0159 0.00781839ZM10.0148 1.40317C5.26257 1.39945 1.40711 5.24888 1.4034 10.0011C1.39968 14.7533 5.24911 18.6087 10.0013 18.6125C14.7535 18.6162 18.609 14.7667 18.6127 10.0145C18.6164 5.26233 14.767 1.40688 10.0148 1.40317ZM8.77858 6.0515L8.88262 6.06148C9.07061 6.09007 9.32483 6.17567 9.55026 6.26496C10.5752 6.6641 12.5811 8.01347 13.3475 8.83154L13.5709 9.07043L13.6505 9.16264C13.8134 9.36947 13.8987 9.6229 13.8985 9.88239C13.8983 10.1266 13.8215 10.3678 13.6745 10.5674C13.6351 10.621 13.5886 10.6723 13.4852 10.7826L13.2152 11.0631C12.4023 11.856 10.6434 13.0316 9.64478 13.4507C9.36749 13.5669 8.96876 13.6991 8.77902 13.7032C8.33409 13.7169 7.91565 13.471 7.71018 13.0733C7.65632 12.9686 7.5892 12.7201 7.53871 12.4869L7.48802 12.2247C7.39563 11.654 7.34607 10.7879 7.34772 9.87799L7.34937 9.58958C7.35923 8.73201 7.41404 7.95058 7.50763 7.44251C7.5449 7.23578 7.62769 6.87983 7.67551 6.76454C7.77951 6.51548 7.9669 6.31441 8.19895 6.19042C8.37822 6.09389 8.58153 6.04459 8.77858 6.0515ZM8.91604 7.51859L8.88972 7.64451L8.8556 7.84333C8.78454 8.32584 8.74291 9.0756 8.7431 9.87911L8.74431 10.1578C8.75207 10.8945 8.79578 11.5715 8.865 11.9991L8.91328 12.2339L9.10522 12.1639C9.98884 11.793 11.7429 10.6057 12.3371 9.96604L12.4175 9.87947L12.2057 9.66104C11.4943 8.97881 9.82638 7.86992 9.04016 7.56372L8.91604 7.51859Z" fill="#666666"/>
</svg>
