<svg width="28" height="31" viewBox="0 0 28 31" fill="none" xmlns="http://www.w3.org/2000/svg">
<path d="M18.0032 2.70744C18.3958 2.70775 18.72 3.03638 18.771 3.46248L18.778 3.58093L18.7773 4.56756C21.9618 4.81396 23.9101 7.11466 23.8971 10.8266L23.8888 21.4471C23.8857 25.3817 21.6943 27.733 18.1752 27.7303L9.42965 27.7234C5.91469 27.7207 3.72291 25.3258 3.72602 21.3433L3.73426 10.8109C3.73716 7.10022 5.69533 4.80194 8.87333 4.55992L8.8742 3.57319C8.87458 3.09111 9.22208 2.70057 9.65037 2.70091C10.043 2.70122 10.3672 3.02985 10.4182 3.45595L10.4252 3.5744L10.4243 4.53943L17.2259 4.54475L17.227 3.57972C17.2274 3.09764 17.5749 2.70711 18.0032 2.70744ZM22.3439 13.074L5.2828 13.0606L5.27701 21.3445C5.27473 24.2535 6.66757 25.8693 9.17642 25.9724L9.43102 25.9777L18.1765 25.9845C20.8548 25.9866 22.3355 24.3978 22.3378 21.4459L22.3439 13.074ZM18.4108 20.3938C18.8391 20.3942 19.186 20.7852 19.1856 21.2673C19.1853 21.7092 18.8932 22.0742 18.5147 22.1317L18.4094 22.1396C17.9716 22.1392 17.6247 21.7482 17.6251 21.2661C17.6254 20.8242 17.9174 20.4592 18.296 20.4017L18.4108 20.3938ZM13.8225 20.3902C14.2508 20.3906 14.5977 20.7816 14.5973 21.2637C14.597 21.7056 14.305 22.0706 13.9264 22.1281L13.8212 22.136C13.3833 22.1357 13.0364 21.7446 13.0368 21.2625C13.0371 20.8206 13.3291 20.4556 13.7077 20.3981L13.8225 20.3902ZM9.22465 20.3866C9.65295 20.387 9.99984 20.778 9.99946 21.2601C9.99912 21.702 9.70709 22.067 9.32853 22.1245L9.21371 22.1324C8.78542 22.1321 8.43852 21.741 8.4389 21.2589C8.43925 20.817 8.73128 20.452 9.10984 20.3945L9.22465 20.3866ZM18.4143 15.8705C18.8426 15.8708 19.1895 16.2619 19.1891 16.744C19.1888 17.1859 18.8968 17.5509 18.5182 17.6084L18.413 17.6163C17.9751 17.6159 17.6282 17.2249 17.6286 16.7428C17.6289 16.3009 17.921 15.9359 18.2995 15.8784L18.4143 15.8705ZM13.8261 15.8669C14.2543 15.8673 14.6012 16.2583 14.6009 16.7404C14.6005 17.1823 14.3085 17.5473 13.9299 17.6048L13.8247 17.6127C13.3868 17.6123 13.0399 17.2213 13.0403 16.7392C13.0406 16.2973 13.3327 15.9323 13.7112 15.8748L13.8261 15.8669ZM9.22819 15.8633C9.65648 15.8637 10.0034 16.2547 10.003 16.7368C10.0027 17.1787 9.71063 17.5437 9.33206 17.6012L9.21725 17.6091C8.78895 17.6088 8.44206 17.2177 8.44244 16.7356C8.44278 16.2937 8.73481 15.9287 9.11338 15.8712L9.22819 15.8633ZM17.2245 6.29008L10.4229 6.28476L10.4222 7.40436C10.4218 7.88644 10.0743 8.27697 9.64601 8.27664C9.25341 8.27633 8.92921 7.94769 8.87819 7.5216L8.8712 7.40315L8.87096 6.31009C6.55917 6.52493 5.28737 8.08564 5.28524 10.8121L5.28416 11.3141L22.3453 11.3274L22.3461 10.8228C22.3556 8.09416 21.0928 6.53471 18.7759 6.31756L18.775 7.41089C18.7746 7.89297 18.4271 8.2835 17.9988 8.28317C17.6062 8.28286 17.282 7.95422 17.231 7.52813L17.224 7.40968L17.2245 6.29008Z" fill="#676767"/>
</svg>
