<svg width="21" height="26" viewBox="0 0 21 26" fill="none" xmlns="http://www.w3.org/2000/svg">
<path d="M15.1952 0.248082C18.7753 0.250881 20.914 2.65473 20.9445 6.6734L20.935 18.7581C20.9318 22.833 18.7837 25.2736 15.1757 25.2708L6.52244 25.264C6.06093 25.2636 5.62298 25.2233 5.21082 25.1441L4.96667 25.0926C2.31125 24.4737 0.769449 22.2005 0.772153 18.7423L0.781526 6.75397C0.781852 6.3361 0.804569 5.93575 0.849674 5.55294C1.24324 2.19395 3.31146 0.23879 6.542 0.241316L15.1952 0.248082ZM15.1837 2.07098L6.54057 2.06422C3.78946 2.06207 2.39363 3.64116 2.39119 6.75523L2.38182 18.7436C2.37939 21.8577 3.77275 23.4389 6.52386 23.4411L15.167 23.4479C17.917 23.45 19.3039 21.8709 19.3063 18.7568L19.3157 6.76846C19.3181 3.65439 17.9337 2.07313 15.1837 2.07098ZM14.8796 17.1507C15.3209 17.151 15.6779 17.5567 15.6775 18.0571C15.6771 18.5576 15.3195 18.9627 14.8782 18.9623L6.80069 18.956C6.35934 18.9556 6.00121 18.55 6.0016 18.0495C6.00199 17.5491 6.36076 17.144 6.8021 17.1444L14.8796 17.1507ZM14.8837 11.8471C15.1918 11.8098 15.493 11.9752 15.6574 12.2718C15.8218 12.571 15.8216 12.9488 15.6567 13.2477C15.4918 13.5441 15.1903 13.709 14.8823 13.6713L6.80482 13.6649C6.39489 13.6121 6.08491 13.2202 6.08527 12.7523C6.08564 12.2844 6.39623 11.8918 6.80625 11.8408L14.8837 11.8471ZM9.89307 6.55216C10.303 6.60377 10.613 6.99687 10.6126 7.4648C10.6122 7.93147 10.3017 8.32408 9.89164 8.37506L6.81904 8.37266C6.40798 8.32104 6.09801 7.92794 6.09837 7.46127C6.09874 6.99334 6.40933 6.60073 6.82047 6.54976L9.89307 6.55216Z" fill="#676767"/>
</svg>
