<svg width="29" height="29" viewBox="0 0 29 29" fill="none" xmlns="http://www.w3.org/2000/svg">
<path d="M27.2537 26.814C27.8182 26.8144 28.2755 27.2977 28.275 27.8933C28.2746 28.4394 27.8897 28.8903 27.3907 28.9614L27.252 28.9711L16.5876 28.9627C16.0231 28.9623 15.5658 28.4791 15.5662 27.8834C15.5667 27.3374 15.9516 26.8864 16.4506 26.8154L16.5893 26.8057L27.2537 26.814ZM16.9008 2.09081C18.8376 0.0503396 21.9766 0.0527937 23.9103 2.09629L25.9177 4.21774C27.8514 6.26124 27.8488 9.57326 25.9119 11.6137L10.7984 27.5357C9.93416 28.4461 8.76303 28.9565 7.54104 28.9555L1.35661 28.9507C0.782101 28.9502 0.320818 28.4504 0.33561 27.8444L0.496324 21.2602C0.528226 20.0158 1.01176 18.8297 1.8466 17.9502L16.9008 2.09081ZM15.7283 6.37113L3.29099 19.4766C2.82694 19.9655 2.5577 20.6259 2.53999 21.317L2.4059 26.7936L7.54273 26.7984C8.14717 26.7989 8.72862 26.5748 9.18773 26.1696L9.35397 26.0093L21.8529 12.8419L15.7283 6.37113ZM22.4635 3.62046C21.3275 2.41999 19.483 2.41854 18.3452 3.61724L17.1761 4.84682L23.2992 11.3176L24.4675 10.0873C25.5422 8.9552 25.6032 7.15632 24.6497 5.94864L24.4709 5.74191L22.4635 3.62046Z" fill="#676767"/>
</svg>
