<svg width="40" height="34" viewBox="0 0 40 34" fill="none" xmlns="http://www.w3.org/2000/svg">
<path d="M14.9126 29.2829L14.916 24.9743C14.9168 23.8744 15.9578 22.9836 17.2411 22.9846L21.9322 22.9883C22.5484 22.9888 23.1393 23.1991 23.5747 23.5729C24.0102 23.9467 24.2546 24.4534 24.2542 24.9816L24.2508 29.2902C24.2466 29.7474 24.4555 30.1873 24.8311 30.5121C25.2067 30.8369 25.718 31.0198 26.2516 31.0202L29.452 31.0227C30.9467 31.0272 32.382 30.5217 33.441 29.6179C34.5 28.714 35.0957 27.4861 35.0967 26.205L35.1063 13.9306C35.1071 12.8957 34.5727 11.9137 33.647 11.2491L22.7655 3.78823C20.8727 2.4801 18.1592 2.52017 16.3208 3.88339L5.67615 11.2272C4.70572 11.8708 4.12523 12.8548 4.09576 13.9063L4.08618 26.1682C4.08409 28.8383 6.60793 31.0048 9.72334 31.0073L12.8507 31.0097C13.9588 31.0106 14.86 30.2451 14.8687 29.2954L14.9126 29.2829Z" fill="#FFB127"/>
</svg>
