<svg width="40" height="29" viewBox="0 0 40 29" fill="none" xmlns="http://www.w3.org/2000/svg">
<path d="M14.9128 25.0098L14.9162 21.436C14.9171 20.5237 15.9581 19.7848 17.2414 19.7857L21.9324 19.7887C22.5487 19.7891 23.1395 19.9635 23.575 20.2736C24.0104 20.5837 24.2549 21.004 24.2544 21.4421L24.2511 25.0158C24.2468 25.3951 24.4557 25.7599 24.8313 26.0294C25.207 26.2988 25.7183 26.4505 26.2518 26.4508L29.4522 26.4529C30.947 26.4566 32.3822 26.0374 33.4412 25.2877C34.5002 24.538 35.096 23.5194 35.097 22.4568L35.1066 12.2757C35.1074 11.4174 34.5729 10.6028 33.6473 10.0515L22.7658 3.86307C20.8729 2.77804 18.1594 2.81127 16.321 3.94201L5.6764 10.0334C4.70596 10.5672 4.12548 11.3834 4.09601 12.2556L4.08642 22.4263C4.08433 24.641 6.60818 26.4381 9.72358 26.4401L12.8509 26.4421C13.9591 26.4429 14.8602 25.8079 14.869 25.0201L14.9128 25.0098Z" fill="#929191"/>
</svg>
