<svg width="24" height="26" viewBox="0 0 24 26" fill="none" xmlns="http://www.w3.org/2000/svg">
<path d="M16.673 0.292822C20.4852 0.295803 23.0234 3.33663 23.02 7.6971L23.012 17.9199C23.0086 22.2806 20.4655 25.3185 16.6534 25.3155L6.94464 25.3079C3.13435 25.3049 0.605431 22.2655 0.608842 17.9024L0.616835 7.67958C0.620242 3.32126 3.16131 0.282258 6.9642 0.285232L16.673 0.292822ZM16.6715 2.17432L6.96273 2.16673C4.11678 2.16451 2.30306 4.33364 2.30044 7.6809L2.29245 17.9037C2.28983 21.2564 4.09348 23.4242 6.94611 23.4264L16.6549 23.434C19.5105 23.4362 21.3258 21.2678 21.3284 17.9186L21.3364 7.69578C21.339 4.34694 19.5274 2.17655 16.6715 2.17432ZM17.4608 13.0344L17.6067 13.191L19.9347 15.8796C20.258 16.253 20.2492 16.8485 19.915 17.2099C19.6113 17.5384 19.1432 17.5602 18.8178 17.2809L18.7247 17.1881L16.3968 14.4997C15.9913 14.0315 15.3314 14.0266 14.919 14.463L14.8285 14.5715L12.3244 17.9695C11.4387 19.1733 9.84658 19.3011 8.81735 18.2909L8.6806 18.1461L7.6832 17.0069C7.42121 16.7026 7.00304 16.6735 6.71164 16.9187L6.61958 17.0106L4.90185 19.0325C4.58171 19.4093 4.04889 19.4248 3.71175 19.0671C3.40527 18.7419 3.36602 18.2203 3.60194 17.845L3.68098 17.7371L5.39835 15.7157C6.30247 14.6501 7.79 14.5945 8.75147 15.5463L8.8916 15.6966L9.88398 16.83C10.1741 17.1612 10.6394 17.17 10.9397 16.8725L11.0245 16.7741L13.5288 13.3758C14.5238 12.0246 16.3136 11.8891 17.4608 13.0344ZM7.98049 6.09284C9.53189 6.09405 10.7899 7.50213 10.7885 9.23588C10.7872 10.9696 9.52698 12.3757 7.97558 12.3745C6.42424 12.3733 5.1673 10.9653 5.16866 9.23149C5.17001 7.49766 6.42915 6.09162 7.98049 6.09284ZM7.97902 7.97434C7.35781 7.97385 6.85281 8.53777 6.85226 9.23281C6.85172 9.92784 7.35584 10.4925 7.97705 10.493C8.59862 10.4935 9.10439 9.9292 9.10493 9.23457C9.10547 8.53993 8.60059 7.97482 7.97902 7.97434Z" fill="#676767"/>
</svg>
