<svg width="33" height="32" viewBox="0 0 33 32" fill="none" xmlns="http://www.w3.org/2000/svg">
<path d="M13.858 20.0419C15.8012 19.8795 17.7555 19.881 19.6984 20.0463L20.3187 20.0969C21.1672 20.1775 22.0097 20.3034 22.8387 20.4732C24.9518 20.891 26.4858 21.6304 27.164 23.0004C27.6678 24.0196 27.6669 25.2024 27.1611 26.2213C26.479 27.5938 24.924 28.3371 22.8477 28.727L22.2187 28.8513C21.3779 29.0049 20.5301 29.1096 19.688 29.164C18.1078 29.2914 16.5202 29.3137 14.989 29.232C14.8202 29.2319 14.7069 29.2313 14.6071 29.229L14.4129 29.2219C14.1769 29.2102 13.9607 29.1864 13.8699 29.1609C12.8046 29.0909 11.7464 28.9427 10.7314 28.7229L10.3871 28.654C8.46499 28.2442 7.0419 27.5065 6.38442 26.2043C6.13543 25.6991 6.00688 25.1469 6.00808 24.5926C6.00637 24.0344 6.13688 23.4831 6.39598 22.9683C7.0829 21.652 8.69493 20.8608 10.7094 20.4657C11.7532 20.2526 12.8113 20.1106 13.858 20.0419ZM19.5271 21.9015C17.6971 21.7458 15.8565 21.7444 14.0084 21.8987C13.0349 21.9627 12.0673 22.0926 11.1053 22.2889C9.61544 22.5811 8.47606 23.1403 8.13672 23.7904C8.01176 24.0388 7.94727 24.3112 7.9481 24.5918C7.94751 24.874 8.01241 25.1528 8.13413 25.3999C8.48202 26.0889 9.55631 26.6044 11.1307 26.9006L11.6051 26.997C12.3995 27.1481 13.2178 27.2525 14.1272 27.3188C14.242 27.341 14.3659 27.3546 14.513 27.3619L15.0427 27.371C16.5367 27.4493 18.0346 27.4283 19.5415 27.307C20.5127 27.2441 21.4775 27.1109 22.4514 26.904L22.7543 26.8429C24.1374 26.5442 25.0946 26.0544 25.41 25.4198C25.6644 24.9072 25.6649 24.3118 25.4115 23.7993C25.0751 23.1196 24.0102 22.6063 22.4406 22.296C21.4858 22.1004 20.518 21.969 19.5442 21.9028L19.5271 21.9015ZM16.7976 3.55004C20.7463 3.55299 23.9448 6.62837 23.9417 10.4191C23.9386 14.2098 20.735 17.2804 16.7864 17.2775C12.8377 17.2745 9.63919 14.1991 9.64229 10.4084C9.64539 6.61769 12.8489 3.54709 16.7976 3.55004ZM16.7961 5.41247C13.9189 5.41032 11.5846 7.64773 11.5823 10.4099C11.5801 13.172 13.9107 15.4129 16.7879 15.415C19.6651 15.4172 21.9994 13.1798 22.0016 10.4176C22.0039 7.65551 19.6733 5.41462 16.7961 5.41247Z" fill="#FDA407"/>
</svg>
