<svg width="33" height="33" viewBox="0 0 33 33" fill="none" xmlns="http://www.w3.org/2000/svg">
<path d="M13.1165 19.7715C15.0417 19.6032 16.9778 19.6047 18.9027 19.776L19.5173 19.8285C20.3579 19.912 21.1926 20.0424 22.0139 20.2185C24.1073 20.6514 25.6272 21.4178 26.2991 22.8376C26.7982 23.8939 26.7973 25.1198 26.2962 26.1758C25.6204 27.5982 24.0798 28.3686 22.0228 28.7727L21.3996 28.9016C20.5666 29.0608 19.7267 29.1692 18.8924 29.2256C17.3268 29.3577 15.7541 29.3808 14.237 29.2961C14.0698 29.296 13.9575 29.2953 13.8586 29.2929L13.6663 29.2856C13.4324 29.2735 13.2182 29.2488 13.1283 29.2224C12.0729 29.1498 11.0245 28.9962 10.0189 28.7685L9.67778 28.697C7.77353 28.2724 6.36364 27.5078 5.71227 26.1582C5.46558 25.6346 5.33822 25.0622 5.33941 24.4878C5.33772 23.9093 5.46702 23.3379 5.72372 22.8044C6.40427 21.4401 8.00134 20.6201 9.99716 20.2106C11.0312 19.9899 12.0795 19.8427 13.1165 19.7715ZM18.733 21.6987C16.92 21.5373 15.0964 21.5359 13.2655 21.6958C12.301 21.7622 11.3424 21.8968 10.3894 22.1002C8.9133 22.4031 7.78449 22.9827 7.44831 23.6564C7.3245 23.9138 7.26061 24.1961 7.26144 24.487C7.26085 24.7795 7.32515 25.0684 7.44574 25.3245C7.7904 26.0385 8.85473 26.5728 10.4145 26.8798L10.8845 26.9797C11.6716 27.1364 12.4822 27.2446 13.3832 27.3133C13.4969 27.3362 13.6197 27.3504 13.7654 27.3579L14.2902 27.3673C15.7704 27.4485 17.2544 27.4268 18.7473 27.301C19.7095 27.2358 20.6654 27.0978 21.6302 26.8833L21.9302 26.82C23.3005 26.5104 24.2488 26.0028 24.5613 25.3451C24.8134 24.8138 24.8139 24.1968 24.5629 23.6656C24.2295 22.9612 23.1745 22.4292 21.6195 22.1076C20.6736 21.9049 19.7147 21.7687 18.7499 21.7001L18.733 21.6987ZM16.0288 2.67924C19.9409 2.6823 23.1097 5.86963 23.1066 9.79834C23.1036 13.7271 19.9297 16.9094 16.0177 16.9064C12.1057 16.9033 8.93684 13.716 8.93991 9.78727C8.94298 5.85855 12.1168 2.67618 16.0288 2.67924ZM16.0273 4.60947C13.1768 4.60724 10.8642 6.92609 10.8619 9.78877C10.8597 12.6514 13.1687 14.9739 16.0192 14.9761C18.8697 14.9784 21.1824 12.6595 21.1846 9.79684C21.1868 6.93416 18.8778 4.6117 16.0273 4.60947Z" fill="#666666"/>
</svg>
